<svg xmlns="http://www.w3.org/2000/svg" viewBox="0 0 640 360">
  <defs>
    <linearGradient id="bg" x1="0%" y1="0%" x2="100%" y2="100%">
      <stop offset="0%" style="stop-color:#4c1d95;stop-opacity:1" />
      <stop offset="100%" style="stop-color:#0f172a;stop-opacity:1" />
    </linearGradient>
    <linearGradient id="accent" x1="0%" y1="0%" x2="100%" y2="0%">
      <stop offset="0%" style="stop-color:#a855f7" />
      <stop offset="100%" style="stop-color:#c084fc" />
    </linearGradient>
  </defs>
  <rect width="640" height="360" fill="url(#bg)" />
  <g opacity="0.06">
    <line x1="0" y1="60" x2="640" y2="60" stroke="#c084fc" stroke-width="1"/>
    <line x1="0" y1="120" x2="640" y2="120" stroke="#c084fc" stroke-width="1"/>
    <line x1="0" y1="180" x2="640" y2="180" stroke="#c084fc" stroke-width="1"/>
    <line x1="0" y1="240" x2="640" y2="240" stroke="#c084fc" stroke-width="1"/>
    <line x1="0" y1="300" x2="640" y2="300" stroke="#c084fc" stroke-width="1"/>
  </g>
  <!-- Sparkle/generation icon -->
  <g transform="translate(320,120)">
    <path d="M0,-40 L5,-15 L30,-10 L5,-5 L0,20 L-5,-5 L-30,-10 L-5,-15 Z" fill="#a855f7" opacity="0.8"/>
    <path d="M35,-30 L38,-22 L46,-20 L38,-18 L35,-10 L32,-18 L24,-20 L32,-22 Z" fill="#c084fc" opacity="0.6"/>
    <path d="M-35,5 L-32,13 L-24,15 L-32,17 L-35,25 L-38,17 L-46,15 L-38,13 Z" fill="#c084fc" opacity="0.6"/>
  </g>
  <!-- Title -->
  <text x="320" y="225" font-family="sans-serif" font-size="32" font-weight="bold" fill="white" text-anchor="middle">生成AI概論</text>
  <text x="320" y="260" font-family="sans-serif" font-size="16" fill="#94a3b8" text-anchor="middle">Introduction to Generative AI</text>
  <rect x="220" y="300" width="200" height="4" rx="2" fill="url(#accent)" opacity="0.8"/>
</svg>